<svg id="authicon" xmlns="http://www.w3.org/2000/svg" width="131.402" height="225.714" viewBox="0 0 131.402 225.714">
  <path id="パス_38" data-name="パス 38" d="M207.385-20H108.369A16.235,16.235,0,0,0,92.176-3.8V189.515a16.24,16.24,0,0,0,16.193,16.2h99.017a16.251,16.251,0,0,0,16.193-16.2V-3.8A16.245,16.245,0,0,0,207.385-20ZM157.874,192.277a6.68,6.68,0,1,1,6.692-6.681A6.681,6.681,0,0,1,157.874,192.277Zm55.593-21.67H102.294V7.715H213.467V170.606Z" transform="translate(-92.176 20)" fill="#4b4b4b"/>
  <path id="パス_40" data-name="パス 40" d="M172.637,229.2l13.721-13.724-4.987-4.987-13.724,13.721-8.73-8.733-4.99,4.99,13.721,13.724Z" transform="translate(-104.597 -115.884)" fill="#4b4b4b"/>
</svg>
